<svg xmlns="http://www.w3.org/2000/svg" version="1.1" xmlns:xlink="http://www.w3.org/1999/xlink" xmlns:svgjs="http://svgjs.com/svgjs" width="1440" height="560" preserveAspectRatio="none" viewBox="0 0 1440 560"><g mask="url(&quot;#SvgjsMask1015&quot;)" fill="none"><path d="M515.15 23.23L557.89 23.23L557.89 65.97L515.15 65.97z" stroke="#d3b714"></path><path d="M1377.25 501.73L1426.75 501.73L1426.75 543.73L1377.25 543.73z" fill="rgba(170, 143, 209, 1)"></path><path d="M524.19 53.18L577.61 53.18L577.61 100.26L524.19 100.26z" fill="#d3b714"></path><path d="M634.16 212.8L664.73 212.8L664.73 245.69L634.16 245.69z" fill="#d3b714"></path><path d="M346.05 281.37L365.83 281.37L365.83 301.15L346.05 301.15z" stroke="rgba(163, 243, 169, 1)"></path><path d="M1128.14 182.12L1141.73 182.12L1141.73 195.71L1128.14 195.71z" stroke="rgba(170, 143, 209, 1)"></path><path d="M945.73 538.9L957.07 538.9L957.07 575.78L945.73 575.78z" stroke="rgba(170, 143, 209, 1)"></path><path d="M915.81 290.7L942.06 290.7L942.06 316.95L915.81 316.95z" fill="#d3b714"></path><path d="M12.76 81.26a37.98 37.98 0 1 0 75.24 10.38z" fill="rgba(163, 243, 169, 1)"></path><path d="M822.43 395.77 a1.24 1.24 0 1 0 2.48 0 a1.24 1.24 0 1 0 -2.48 0z" stroke="#d3b714"></path><path d="M1149.8 419.27L1178.01 419.27L1178.01 433.92L1149.8 433.92z" stroke="rgba(163, 243, 169, 1)"></path><path d="M623.36 78.48L677.76 78.48L677.76 123.34L623.36 123.34z" stroke="rgba(163, 243, 169, 1)"></path><path d="M1058.48 75.12a25.02 25.02 0 1 0-33.53-37.14z" stroke="rgba(163, 243, 169, 1)"></path><path d="M1406.93 296.51L1448.38 296.51L1448.38 337.96L1406.93 337.96z" fill="rgba(170, 143, 209, 1)"></path><path d="M450.41 534.05L453.85 534.05L453.85 537.49L450.41 537.49z" fill="#d3b714"></path><path d="M648.06 389.29 a30.32 30.32 0 1 0 60.64 0 a30.32 30.32 0 1 0 -60.64 0z" fill="rgba(163, 243, 169, 1)"></path><path d="M545.87 454.07L585.52 454.07L585.52 493.72L545.87 493.72z" stroke="rgba(170, 143, 209, 1)"></path><path d="M100.94 508.37L110.28 508.37L110.28 517.71L100.94 517.71z" fill="rgba(163, 243, 169, 1)"></path><path d="M1009.38 330.27L1052.32 330.27L1052.32 357.5L1009.38 357.5z" stroke="rgba(170, 143, 209, 1)"></path><path d="M989.48 526.41L1005.36 526.41L1005.36 580.05L989.48 580.05z" fill="rgba(163, 243, 169, 1)"></path><path d="M581.8 435.14 a47.03 47.03 0 1 0 94.06 0 a47.03 47.03 0 1 0 -94.06 0z" stroke="rgba(170, 143, 209, 1)"></path><path d="M319.72 447.57L334.75 447.57L334.75 465.23L319.72 465.23z" fill="#d3b714"></path><path d="M1020.91 319.38L1058.05 319.38L1058.05 356.52L1020.91 356.52z" stroke="rgba(170, 143, 209, 1)"></path><path d="M977.1 293.96L1000.17 293.96L1000.17 329.62L977.1 329.62z" stroke="rgba(170, 143, 209, 1)"></path><path d="M1381.24 504.14L1406.03 504.14L1406.03 528.93L1381.24 528.93z" stroke="rgba(170, 143, 209, 1)"></path><path d="M808.44 11.7L856.08 11.7L856.08 59.34L808.44 59.34z" stroke="#d3b714"></path><path d="M1226.46 5.99L1275.59 5.99L1275.59 51.91L1226.46 51.91z" fill="#d3b714"></path><path d="M863.89 313.97 a0.97 0.97 0 1 0 1.94 0 a0.97 0.97 0 1 0 -1.94 0z" stroke="rgba(170, 143, 209, 1)"></path><path d="M496.69 515.59L504.22 515.59L504.22 557.34L496.69 557.34z" fill="#d3b714"></path><path d="M1168.39 216.77L1212.24 216.77L1212.24 260.62L1168.39 260.62z" stroke="#d3b714"></path><path d="M1222.03 164.42L1270.77 164.42L1270.77 213.16L1222.03 213.16z" fill="#d3b714"></path><path d="M1304.98 315.82a28.47 28.47 0 1 0 21.81 52.6z" stroke="rgba(163, 243, 169, 1)"></path><path d="M1391.34 550.05L1423.22 550.05L1423.22 596.87L1391.34 596.87z" fill="rgba(170, 143, 209, 1)"></path></g><defs><mask id="SvgjsMask1015"><rect width="1440" height="560" fill="#ffffff"></rect></mask></defs></svg>